<svg width="22" height="22" viewBox="0 0 22 22" fill="none" xmlns="http://www.w3.org/2000/svg">
<path d="M14.5215 2.01942L15.6575 0.287503C15.672 0.265311 15.6812 0.240917 15.6846 0.215716C15.688 0.190514 15.6854 0.164998 15.6771 0.140623C15.6689 0.116249 15.655 0.0934944 15.6363 0.0736584C15.6175 0.0538223 15.5944 0.0372934 15.5681 0.0250154C15.5419 0.0127373 15.513 0.00495062 15.4832 0.00209986C15.4534 -0.000750907 15.4232 0.00139011 15.3943 0.00840061C15.3655 0.0154111 15.3386 0.0271538 15.3151 0.0429583C15.2916 0.0587627 15.2721 0.0783195 15.2575 0.100512L14.1097 1.85043C13.1299 1.48734 12.0717 1.29987 11.0018 1.29987C9.93189 1.29987 8.87363 1.48734 7.89382 1.85043L6.74602 0.100512C6.71668 0.0554272 6.66734 0.0220394 6.60887 0.0076935C6.55039 -0.00665237 6.48757 -0.000781242 6.43422 0.0240154C6.38087 0.0488119 6.34136 0.0905028 6.32438 0.139916C6.3074 0.18933 6.31435 0.242418 6.3437 0.287503L7.47967 2.01942C6.39916 2.47025 5.48626 3.16362 4.84093 4.0236C4.1956 4.88359 3.8427 5.87705 3.82089 6.8952H18.1827C18.1606 5.87684 17.8074 4.88324 17.1616 4.02323C16.5158 3.16322 15.6025 2.46998 14.5215 2.01942ZM7.68793 4.6743C7.56922 4.6743 7.45319 4.64454 7.3545 4.58879C7.25582 4.53304 7.17892 4.4538 7.13355 4.3611C7.08818 4.26841 7.07636 4.16642 7.09961 4.06805C7.12285 3.96968 7.18011 3.87935 7.26413 3.80848C7.34815 3.73762 7.45516 3.68942 7.57162 3.66997C7.68807 3.65052 7.80873 3.6607 7.91834 3.69923C8.02794 3.73775 8.12155 3.80289 8.18733 3.88639C8.25311 3.96989 8.2881 4.06801 8.28787 4.16832C8.28755 4.30261 8.22421 4.4313 8.11173 4.52616C7.99925 4.62103 7.84684 4.6743 7.68793 4.6743ZM14.3168 4.6743C14.1981 4.6743 14.0821 4.64454 13.9834 4.58879C13.8847 4.53304 13.8078 4.4538 13.7624 4.3611C13.717 4.26841 13.7052 4.16642 13.7285 4.06805C13.7517 3.96968 13.809 3.87935 13.893 3.80848C13.977 3.73762 14.084 3.68942 14.2005 3.66997C14.3169 3.65052 14.4376 3.6607 14.5472 3.69923C14.6568 3.73775 14.7504 3.80289 14.8162 3.88639C14.882 3.96989 14.917 4.06801 14.9167 4.16832C14.9164 4.30261 14.8531 4.4313 14.7406 4.52616C14.6281 4.62103 14.4757 4.6743 14.3168 4.6743ZM3.81852 16.1708C3.81821 16.3638 3.863 16.555 3.95032 16.7334C4.03764 16.9119 4.16577 17.0739 4.32738 17.2104C4.48898 17.3469 4.68087 17.455 4.89204 17.5287C5.10322 17.6024 5.32952 17.6401 5.55798 17.6397H6.70934V20.6396C6.70934 21.0004 6.87895 21.3464 7.18086 21.6015C7.48277 21.8567 7.89225 22 8.31922 22C8.74619 22 9.15567 21.8567 9.45758 21.6015C9.7595 21.3464 9.92911 21.0004 9.92911 20.6396V17.6397H12.0756V20.6396C12.0756 21.0002 12.2452 21.3461 12.547 21.6012C12.8488 21.8562 13.2581 21.9995 13.6849 21.9995C14.1117 21.9995 14.5211 21.8562 14.8229 21.6012C15.1247 21.3461 15.2942 21.0002 15.2942 20.6396V17.6397H16.4467C16.6749 17.6398 16.9009 17.602 17.1117 17.5282C17.3225 17.4545 17.5141 17.3464 17.6754 17.21C17.8367 17.0737 17.9647 16.9118 18.0519 16.7337C18.1392 16.5555 18.184 16.3646 18.1838 16.1718V7.37518H3.81852V16.1708ZM1.60929 7.14119C1.39786 7.14119 1.1885 7.1764 0.993171 7.2448C0.797845 7.31321 0.620385 7.41347 0.470933 7.53986C0.321481 7.66624 0.202966 7.81628 0.122161 7.98139C0.0413559 8.1465 -0.000155032 8.32345 4.35078e-07 8.50212V14.1709C4.31929e-07 14.3495 0.0416259 14.5263 0.122501 14.6913C0.203375 14.8563 0.321915 15.0062 0.471352 15.1325C0.620789 15.2588 0.798196 15.3589 0.993444 15.4273C1.18869 15.4956 1.39796 15.5308 1.60929 15.5308C1.82063 15.5308 2.0299 15.4956 2.22514 15.4273C2.42039 15.3589 2.5978 15.2588 2.74724 15.1325C2.89667 15.0062 3.01521 14.8563 3.09609 14.6913C3.17696 14.5263 3.21859 14.3495 3.21859 14.1709V8.50212C3.21859 8.32353 3.17696 8.14669 3.09609 7.9817C3.01521 7.8167 2.89667 7.66678 2.74724 7.5405C2.5978 7.41422 2.42039 7.31405 2.22514 7.24571C2.0299 7.17736 1.82063 7.14219 1.60929 7.14219M20.3907 7.14219C20.1793 7.14219 19.9699 7.1774 19.7746 7.2458C19.5793 7.31421 19.4018 7.41447 19.2523 7.54086C19.1029 7.66724 18.9844 7.81728 18.9036 7.98239C18.8228 8.1475 18.7813 8.32445 18.7814 8.50312V14.1719C18.7814 14.3505 18.823 14.5273 18.9039 14.6923C18.9848 14.8573 19.1033 15.0072 19.2528 15.1335C19.4022 15.2598 19.5796 15.3599 19.7749 15.4283C19.9701 15.4966 20.1794 15.5318 20.3907 15.5318C20.602 15.5318 20.8113 15.4966 21.0066 15.4283C21.2018 15.3599 21.3792 15.2598 21.5286 15.1335C21.6781 15.0072 21.7966 14.8573 21.8775 14.6923C21.9584 14.5273 22 14.3505 22 14.1719V8.50212C22 8.14145 21.8305 7.79554 21.5286 7.5405C21.2268 7.28546 20.8175 7.14219 20.3907 7.14219Z" fill="white"/>
</svg>
