<svg width="86" height="25" viewBox="0 0 86 25" fill="none" xmlns="http://www.w3.org/2000/svg">
<path d="M0.975657 23.4145V24.3901H4.75645e-05V23.4145H0.975657ZM0.975657 22.4389V23.4145H4.75645e-05V22.4389H0.975657ZM0.975657 21.4633V22.4389H4.75645e-05V21.4633H0.975657ZM0.975657 20.4877V21.4633H4.75645e-05V20.4877H0.975657ZM0.975657 19.5121V20.4877H4.75645e-05V19.5121H0.975657ZM0.975657 18.5365V19.5121H4.75645e-05V18.5365H0.975657ZM0.975657 17.5609V18.5365H4.75645e-05V17.5609H0.975657ZM0.975657 16.5853V17.5609H4.75645e-05V16.5853H0.975657ZM0.975657 15.6096V16.5853H4.75645e-05V15.6096H0.975657ZM0.975657 14.634V15.6096H4.75645e-05V14.634H0.975657ZM0.975657 13.6584V14.634H4.75645e-05V13.6584H0.975657ZM0.975657 12.6828V13.6584H4.75645e-05V12.6828H0.975657ZM0.975657 11.7072V12.6828H4.75645e-05V11.7072H0.975657ZM0.975657 10.7316V11.7072H4.75645e-05V10.7316H0.975657ZM0.975657 9.75599V10.7316H4.75645e-05V9.75599H0.975657ZM1.95127 9.75599V10.7316H0.975657V9.75599H1.95127ZM1.95127 10.7316V11.7072H0.975657V10.7316H1.95127ZM1.95127 11.7072V12.6828H0.975657V11.7072H1.95127ZM1.95127 12.6828V13.6584H0.975657V12.6828H1.95127ZM1.95127 13.6584V14.634H0.975657V13.6584H1.95127ZM1.95127 14.634V15.6096H0.975657V14.634H1.95127ZM1.95127 15.6096V16.5853H0.975657V15.6096H1.95127ZM2.92688 16.5853V17.5609H1.95127V16.5853H2.92688ZM2.92688 17.5609V18.5365H1.95127V17.5609H2.92688ZM2.92688 18.5365V19.5121H1.95127V18.5365H2.92688ZM2.92688 19.5121V20.4877H1.95127V19.5121H2.92688ZM2.92688 20.4877V21.4633H1.95127V20.4877H2.92688ZM2.92688 21.4633V22.4389H1.95127V21.4633H2.92688ZM2.92688 22.4389V23.4145H1.95127V22.4389H2.92688ZM2.92688 23.4145V24.3901H1.95127V23.4145H2.92688ZM3.90249 23.4145V24.3901H2.92688V23.4145H3.90249ZM4.8781 23.4145V24.3901H3.90249V23.4145H4.8781ZM4.8781 22.4389V23.4145H3.90249V22.4389H4.8781ZM4.8781 21.4633V22.4389H3.90249V21.4633H4.8781ZM4.8781 20.4877V21.4633H3.90249V20.4877H4.8781ZM4.8781 19.5121V20.4877H3.90249V19.5121H4.8781ZM4.8781 18.5365V19.5121H3.90249V18.5365H4.8781ZM4.8781 17.5609V18.5365H3.90249V17.5609H4.8781ZM4.8781 16.5853V17.5609H3.90249V16.5853H4.8781ZM3.90249 16.5853V17.5609H2.92688V16.5853H3.90249ZM3.90249 15.6096V16.5853H2.92688V15.6096H3.90249ZM3.90249 17.5609V18.5365H2.92688V17.5609H3.90249ZM3.90249 18.5365V19.5121H2.92688V18.5365H3.90249ZM3.90249 19.5121V20.4877H2.92688V19.5121H3.90249ZM3.90249 20.4877V21.4633H2.92688V20.4877H3.90249ZM3.90249 21.4633V22.4389H2.92688V21.4633H3.90249ZM3.90249 22.4389V23.4145H2.92688V22.4389H3.90249ZM1.95127 23.4145V24.3901H0.975657V23.4145H1.95127ZM1.95127 22.4389V23.4145H0.975657V22.4389H1.95127ZM1.95127 21.4633V22.4389H0.975657V21.4633H1.95127ZM1.95127 20.4877V21.4633H0.975657V20.4877H1.95127ZM1.95127 19.5121V20.4877H0.975657V19.5121H1.95127ZM1.95127 18.5365V19.5121H0.975657V18.5365H1.95127ZM1.95127 17.5609V18.5365H0.975657V17.5609H1.95127ZM1.95127 16.5853V17.5609H0.975657V16.5853H1.95127ZM0.975657 -0.000107765V0.975503H4.75645e-05V-0.000107765H0.975657ZM0.975657 0.975503V1.95111H4.75645e-05V0.975503H0.975657ZM0.975657 1.95111V2.92672H4.75645e-05V1.95111H0.975657ZM0.975657 2.92672V3.90233H4.75645e-05V2.92672H0.975657ZM0.975657 3.90233V4.87794H4.75645e-05V3.90233H0.975657ZM0.975657 4.87794V5.85355H4.75645e-05V4.87794H0.975657ZM0.975657 5.85355V6.82916H4.75645e-05V5.85355H0.975657ZM0.975657 6.82916V7.80477H4.75645e-05V6.82916H0.975657ZM0.975657 7.80477V8.78038H4.75645e-05V7.80477H0.975657ZM0.975657 8.78038V9.75599H4.75645e-05V8.78038H0.975657ZM3.90249 -0.000107765V0.975503H2.92688V-0.000107765H3.90249ZM3.90249 0.975503V1.95111H2.92688V0.975503H3.90249ZM3.90249 1.95111V2.92672H2.92688V1.95111H3.90249ZM3.90249 2.92672V3.90233H2.92688V2.92672H3.90249ZM3.90249 3.90233V4.87794H2.92688V3.90233H3.90249ZM3.90249 4.87794V5.85355H2.92688V4.87794H3.90249ZM3.90249 6.82916V7.80477H2.92688V6.82916H3.90249ZM3.90249 7.80477V8.78038H2.92688V7.80477H3.90249ZM3.90249 8.78038V9.75599H2.92688V8.78038H3.90249ZM3.90249 9.75599V10.7316H2.92688V9.75599H3.90249ZM3.90249 10.7316V11.7072H2.92688V10.7316H3.90249ZM3.90249 11.7072V12.6828H2.92688V11.7072H3.90249ZM3.90249 12.6828V13.6584H2.92688V12.6828H3.90249ZM4.8781 13.6584V14.634H3.90249V13.6584H4.8781ZM4.8781 14.634V15.6096H3.90249V14.634H4.8781ZM4.8781 15.6096V16.5853H3.90249V15.6096H4.8781ZM4.8781 12.6828V13.6584H3.90249V12.6828H4.8781ZM4.8781 11.7072V12.6828H3.90249V11.7072H4.8781ZM4.8781 10.7316V11.7072H3.90249V10.7316H4.8781ZM4.8781 9.75599V10.7316H3.90249V9.75599H4.8781ZM4.8781 8.78038V9.75599H3.90249V8.78038H4.8781ZM4.8781 7.80477V8.78038H3.90249V7.80477H4.8781ZM4.8781 6.82916V7.80477H3.90249V6.82916H4.8781ZM4.8781 5.85355V6.82916H3.90249V5.85355H4.8781ZM4.8781 4.87794V5.85355H3.90249V4.87794H4.8781ZM4.8781 3.90233V4.87794H3.90249V3.90233H4.8781ZM3.90249 5.85355V6.82916H2.92688V5.85355H3.90249ZM4.8781 2.92672V3.90233H3.90249V2.92672H4.8781ZM4.8781 1.95111V2.92672H3.90249V1.95111H4.8781ZM4.8781 0.975503V1.95111H3.90249V0.975503H4.8781ZM4.8781 -0.000107765V0.975503H3.90249V-0.000107765H4.8781ZM2.92688 -0.000107765V0.975503H1.95127V-0.000107765H2.92688ZM1.95127 -0.000107765V0.975503H0.975657V-0.000107765H1.95127ZM1.95127 0.975503V1.95111H0.975657V0.975503H1.95127ZM2.92688 0.975503V1.95111H1.95127V0.975503H2.92688ZM2.92688 1.95111V2.92672H1.95127V1.95111H2.92688ZM2.92688 2.92672V3.90233H1.95127V2.92672H2.92688ZM2.92688 3.90233V4.87794H1.95127V3.90233H2.92688ZM2.92688 4.87794V5.85355H1.95127V4.87794H2.92688ZM2.92688 5.85355V6.82916H1.95127V5.85355H2.92688ZM2.92688 6.82916V7.80477H1.95127V6.82916H2.92688ZM1.95127 7.80477V8.78038H0.975657V7.80477H1.95127ZM1.95127 8.78038V9.75599H0.975657V8.78038H1.95127ZM1.95127 6.82916V7.80477H0.975657V6.82916H1.95127ZM1.95127 5.85355V6.82916H0.975657V5.85355H1.95127ZM1.95127 4.87794V5.85355H0.975657V4.87794H1.95127ZM1.95127 3.90233V4.87794H0.975657V3.90233H1.95127ZM1.95127 2.92672V3.90233H0.975657V2.92672H1.95127ZM1.95127 1.95111V2.92672H0.975657V1.95111H1.95127ZM2.92688 7.80477V8.78038H1.95127V7.80477H2.92688ZM2.92688 8.78038V9.75599H1.95127V8.78038H2.92688ZM2.92688 9.75599V10.7316H1.95127V9.75599H2.92688ZM2.92688 10.7316V11.7072H1.95127V10.7316H2.92688ZM2.92688 11.7072V12.6828H1.95127V11.7072H2.92688ZM2.92688 12.6828V13.6584H1.95127V12.6828H2.92688ZM2.92688 13.6584V14.634H1.95127V13.6584H2.92688ZM2.92688 14.634V15.6096H1.95127V14.634H2.92688ZM2.92688 15.6096V16.5853H1.95127V15.6096H2.92688ZM3.90249 14.634V15.6096H2.92688V14.634H3.90249ZM3.90249 13.6584V14.634H2.92688V13.6584H3.90249ZM19.5122 -0.000107765V0.975503H18.5366V-0.000107765H19.5122ZM19.5122 0.975503V1.95111H18.5366V0.975503H19.5122ZM19.5122 1.95111V2.92672H18.5366V1.95111H19.5122ZM19.5122 3.90233V4.87794H18.5366V3.90233H19.5122ZM19.5122 4.87794V5.85355H18.5366V4.87794H19.5122ZM19.5122 5.85355V6.82916H18.5366V5.85355H19.5122ZM19.5122 6.82916V7.80477H18.5366V6.82916H19.5122ZM19.5122 7.80477V8.78038H18.5366V7.80477H19.5122ZM19.5122 8.78038V9.75599H18.5366V8.78038H19.5122ZM19.5122 9.75599V10.7316H18.5366V9.75599H19.5122ZM20.4879 10.7316V11.7072H19.5122V10.7316H20.4879ZM20.4879 11.7072V12.6828H19.5122V11.7072H20.4879ZM20.4879 12.6828V13.6584H19.5122V12.6828H20.4879ZM20.4879 13.6584V14.634H19.5122V13.6584H20.4879ZM20.4879 14.634V15.6096H19.5122V14.634H20.4879ZM20.4879 15.6096V16.5853H19.5122V15.6096H20.4879ZM21.4635 15.6096V16.5853H20.4879V15.6096H21.4635ZM21.4635 16.5853V17.5609H20.4879V16.5853H21.4635ZM21.4635 17.5609V18.5365H20.4879V17.5609H21.4635ZM21.4635 18.5365V19.5121H20.4879V18.5365H21.4635ZM21.4635 19.5121V20.4877H20.4879V19.5121H21.4635ZM21.4635 20.4877V21.4633H20.4879V20.4877H21.4635ZM21.4635 21.4633V22.4389H20.4879V21.4633H21.4635ZM21.4635 22.4389V23.4145H20.4879V22.4389H21.4635ZM21.4635 23.4145V24.3901H20.4879V23.4145H21.4635ZM20.4879 23.4145V24.3901H19.5122V23.4145H20.4879ZM20.4879 22.4389V23.4145H19.5122V22.4389H20.4879ZM20.4879 21.4633V22.4389H19.5122V21.4633H20.4879ZM20.4879 20.4877V21.4633H19.5122V20.4877H20.4879ZM20.4879 19.5121V20.4877H19.5122V19.5121H20.4879ZM20.4879 18.5365V19.5121H19.5122V18.5365H20.4879ZM20.4879 17.5609V18.5365H19.5122V17.5609H20.4879ZM19.5122 17.5609V18.5365H18.5366V17.5609H19.5122ZM19.5122 16.5853V17.5609H18.5366V16.5853H19.5122ZM20.4879 16.5853V17.5609H19.5122V16.5853H20.4879ZM19.5122 10.7316V11.7072H18.5366V10.7316H19.5122ZM19.5122 11.7072V12.6828H18.5366V11.7072H19.5122ZM19.5122 12.6828V13.6584H18.5366V12.6828H19.5122ZM19.5122 13.6584V14.634H18.5366V13.6584H19.5122ZM19.5122 14.634V15.6096H18.5366V14.634H19.5122ZM19.5122 15.6096V16.5853H18.5366V15.6096H19.5122ZM19.5122 2.92672V3.90233H18.5366V2.92672H19.5122ZM19.5122 18.5365V19.5121H18.5366V18.5365H19.5122ZM19.5122 19.5121V20.4877H18.5366V19.5121H19.5122ZM19.5122 20.4877V21.4633H18.5366V20.4877H19.5122ZM19.5122 21.4633V22.4389H18.5366V21.4633H19.5122ZM19.5122 22.4389V23.4145H18.5366V22.4389H19.5122ZM19.5122 23.4145V24.3901H18.5366V23.4145H19.5122ZM22.4391 23.4145V24.3901H21.4635V23.4145H22.4391ZM23.4147 23.4145V24.3901H22.4391V23.4145H23.4147ZM23.4147 22.4389V23.4145H22.4391V22.4389H23.4147ZM23.4147 21.4633V22.4389H22.4391V21.4633H23.4147ZM23.4147 20.4877V21.4633H22.4391V20.4877H23.4147ZM23.4147 19.5121V20.4877H22.4391V19.5121H23.4147ZM23.4147 18.5365V19.5121H22.4391V18.5365H23.4147ZM23.4147 17.5609V18.5365H22.4391V17.5609H23.4147ZM23.4147 16.5853V17.5609H22.4391V16.5853H23.4147ZM23.4147 15.6096V16.5853H22.4391V15.6096H23.4147ZM23.4147 14.634V15.6096H22.4391V14.634H23.4147ZM23.4147 13.6584V14.634H22.4391V13.6584H23.4147ZM23.4147 12.6828V13.6584H22.4391V12.6828H23.4147ZM23.4147 11.7072V12.6828H22.4391V11.7072H23.4147ZM23.4147 10.7316V11.7072H22.4391V10.7316H23.4147ZM23.4147 9.75599V10.7316H22.4391V9.75599H23.4147ZM23.4147 8.78038V9.75599H22.4391V8.78038H23.4147ZM23.4147 7.80477V8.78038H22.4391V7.80477H23.4147ZM23.4147 6.82916V7.80477H22.4391V6.82916H23.4147ZM23.4147 5.85355V6.82916H22.4391V5.85355H23.4147ZM20.4879 -0.000107765V0.975503H19.5122V-0.000107765H20.4879ZM21.4635 -0.000107765V0.975503H20.4879V-0.000107765H21.4635ZM22.4391 -0.000107765V0.975503H21.4635V-0.000107765H22.4391ZM23.4147 -0.000107765V0.975503H22.4391V-0.000107765H23.4147ZM23.4147 0.975503V1.95111H22.4391V0.975503H23.4147ZM23.4147 1.95111V2.92672H22.4391V1.95111H23.4147ZM23.4147 2.92672V3.90233H22.4391V2.92672H23.4147ZM23.4147 3.90233V4.87794H22.4391V3.90233H23.4147ZM23.4147 4.87794V5.85355H22.4391V4.87794H23.4147ZM20.4879 0.975503V1.95111H19.5122V0.975503H20.4879ZM21.4635 0.975503V1.95111H20.4879V0.975503H21.4635ZM22.4391 0.975503V1.95111H21.4635V0.975503H22.4391ZM22.4391 1.95111V2.92672H21.4635V1.95111H22.4391ZM22.4391 2.92672V3.90233H21.4635V2.92672H22.4391ZM22.4391 3.90233V4.87794H21.4635V3.90233H22.4391ZM22.4391 4.87794V5.85355H21.4635V4.87794H22.4391ZM21.4635 4.87794V5.85355H20.4879V4.87794H21.4635ZM21.4635 3.90233V4.87794H20.4879V3.90233H21.4635ZM21.4635 2.92672V3.90233H20.4879V2.92672H21.4635ZM21.4635 1.95111V2.92672H20.4879V1.95111H21.4635ZM20.4879 1.95111V2.92672H19.5122V1.95111H20.4879ZM20.4879 2.92672V3.90233H19.5122V2.92672H20.4879ZM20.4879 3.90233V4.87794H19.5122V3.90233H20.4879ZM20.4879 4.87794V5.85355H19.5122V4.87794H20.4879ZM20.4879 5.85355V6.82916H19.5122V5.85355H20.4879ZM20.4879 6.82916V7.80477H19.5122V6.82916H20.4879ZM20.4879 7.80477V8.78038H19.5122V7.80477H20.4879ZM20.4879 8.78038V9.75599H19.5122V8.78038H20.4879ZM21.4635 8.78038V9.75599H20.4879V8.78038H21.4635ZM21.4635 7.80477V8.78038H20.4879V7.80477H21.4635ZM21.4635 6.82916V7.80477H20.4879V6.82916H21.4635ZM21.4635 5.85355V6.82916H20.4879V5.85355H21.4635ZM22.4391 5.85355V6.82916H21.4635V5.85355H22.4391ZM22.4391 6.82916V7.80477H21.4635V6.82916H22.4391ZM22.4391 7.80477V8.78038H21.4635V7.80477H22.4391ZM22.4391 8.78038V9.75599H21.4635V8.78038H22.4391ZM22.4391 9.75599V10.7316H21.4635V9.75599H22.4391ZM22.4391 10.7316V11.7072H21.4635V10.7316H22.4391ZM22.4391 11.7072V12.6828H21.4635V11.7072H22.4391ZM22.4391 12.6828V13.6584H21.4635V12.6828H22.4391ZM22.4391 13.6584V14.634H21.4635V13.6584H22.4391ZM22.4391 14.634V15.6096H21.4635V14.634H22.4391ZM21.4635 14.634V15.6096H20.4879V14.634H21.4635ZM21.4635 13.6584V14.634H20.4879V13.6584H21.4635ZM21.4635 12.6828V13.6584H20.4879V12.6828H21.4635ZM21.4635 11.7072V12.6828H20.4879V11.7072H21.4635ZM21.4635 10.7316V11.7072H20.4879V10.7316H21.4635ZM20.4879 9.75599V10.7316H19.5122V9.75599H20.4879ZM21.4635 9.75599V10.7316H20.4879V9.75599H21.4635ZM22.4391 15.6096V16.5853H21.4635V15.6096H22.4391ZM22.4391 16.5853V17.5609H21.4635V16.5853H22.4391ZM22.4391 17.5609V18.5365H21.4635V17.5609H22.4391ZM22.4391 18.5365V19.5121H21.4635V18.5365H22.4391ZM22.4391 19.5121V20.4877H21.4635V19.5121H22.4391ZM22.4391 20.4877V21.4633H21.4635V20.4877H22.4391ZM22.4391 21.4633V22.4389H21.4635V21.4633H22.4391ZM22.4391 22.4389V23.4145H21.4635V22.4389H22.4391ZM11.7074 11.7072V12.6828H10.7318V11.7072H11.7074ZM11.7074 10.7316V11.7072H10.7318V10.7316H11.7074ZM11.7074 9.75599V10.7316H10.7318V9.75599H11.7074ZM11.7074 8.78038V9.75599H10.7318V8.78038H11.7074ZM11.7074 7.80477V8.78038H10.7318V7.80477H11.7074ZM11.7074 6.82916V7.80477H10.7318V6.82916H11.7074ZM11.7074 12.6828V13.6584H10.7318V12.6828H11.7074ZM13.6586 5.85355V6.82916H12.683V5.85355H13.6586ZM14.6342 4.87794V5.85355H13.6586V4.87794H14.6342ZM15.6098 3.90233V4.87794H14.6342V3.90233H15.6098ZM16.5854 2.92672V3.90233H15.6098V2.92672H16.5854ZM10.7318 5.85355V6.82916H9.75614V5.85355H10.7318ZM9.75614 4.87794V5.85355H8.78053V4.87794H9.75614ZM8.78053 3.90233V4.87794H7.80493V3.90233H8.78053ZM7.80493 2.92672V3.90233H6.82932V2.92672H7.80493ZM13.6586 11.7072V12.6828H12.683V11.7072H13.6586ZM14.6342 10.7316V11.7072H13.6586V10.7316H14.6342ZM15.6098 9.75599V10.7316H14.6342V9.75599H15.6098ZM16.5854 8.78038V9.75599H15.6098V8.78038H16.5854ZM10.7318 11.7072V12.6828H9.75614V11.7072H10.7318ZM9.75614 10.7316V11.7072H8.78053V10.7316H9.75614ZM8.78053 9.75599V10.7316H7.80493V9.75599H8.78053ZM7.80493 8.78038V9.75599H6.82932V8.78038H7.80493ZM5.85371 0.975503V1.95111H4.8781V0.975503H5.85371ZM6.82932 1.95111V2.92672H5.85371V1.95111H6.82932ZM17.561 1.95111V2.92672H16.5854V1.95111H17.561ZM18.5366 0.975503V1.95111H17.561V0.975503H18.5366ZM6.82932 4.87794V5.85355H5.85371V4.87794H6.82932ZM6.82932 7.80477V8.78038H5.85371V7.80477H6.82932ZM6.82932 6.82916V7.80477H5.85371V6.82916H6.82932ZM5.85371 6.82916V7.80477H4.8781V6.82916H5.85371ZM17.561 7.80477V8.78038H16.5854V7.80477H17.561ZM18.5366 6.82916V7.80477H17.561V6.82916H18.5366ZM18.5366 5.85355V6.82916H17.561V5.85355H18.5366ZM18.5366 4.87794V5.85355H17.561V4.87794H18.5366ZM18.5366 3.90233V4.87794H17.561V3.90233H18.5366ZM18.5366 2.92672V3.90233H17.561V2.92672H18.5366ZM18.5366 1.95111V2.92672H17.561V1.95111H18.5366ZM17.561 2.92672V3.90233H16.5854V2.92672H17.561ZM17.561 3.90233V4.87794H16.5854V3.90233H17.561ZM17.561 4.87794V5.85355H16.5854V4.87794H17.561ZM17.561 5.85355V6.82916H16.5854V5.85355H17.561ZM17.561 6.82916V7.80477H16.5854V6.82916H17.561ZM16.5854 3.90233V4.87794H15.6098V3.90233H16.5854ZM16.5854 4.87794V5.85355H15.6098V4.87794H16.5854ZM16.5854 5.85355V6.82916H15.6098V5.85355H16.5854ZM16.5854 6.82916V7.80477H15.6098V6.82916H16.5854ZM16.5854 7.80477V8.78038H15.6098V7.80477H16.5854ZM15.6098 4.87794V5.85355H14.6342V4.87794H15.6098ZM15.6098 5.85355V6.82916H14.6342V5.85355H15.6098ZM15.6098 6.82916V7.80477H14.6342V6.82916H15.6098ZM15.6098 7.80477V8.78038H14.6342V7.80477H15.6098ZM15.6098 8.78038V9.75599H14.6342V8.78038H15.6098ZM14.6342 5.85355V6.82916H13.6586V5.85355H14.6342ZM14.6342 6.82916V7.80477H13.6586V6.82916H14.6342ZM14.6342 7.80477V8.78038H13.6586V7.80477H14.6342ZM14.6342 8.78038V9.75599H13.6586V8.78038H14.6342ZM14.6342 9.75599V10.7316H13.6586V9.75599H14.6342ZM13.6586 6.82916V7.80477H12.683V6.82916H13.6586ZM13.6586 7.80477V8.78038H12.683V7.80477H13.6586ZM13.6586 8.78038V9.75599H12.683V8.78038H13.6586ZM13.6586 9.75599V10.7316H12.683V9.75599H13.6586ZM13.6586 10.7316V11.7072H12.683V10.7316H13.6586ZM10.7318 10.7316V11.7072H9.75614V10.7316H10.7318ZM10.7318 9.75599V10.7316H9.75614V9.75599H10.7318ZM9.75614 9.75599V10.7316H8.78053V9.75599H9.75614ZM9.75614 8.78038V9.75599H8.78053V8.78038H9.75614ZM8.78053 8.78038V9.75599H7.80493V8.78038H8.78053ZM8.78053 7.80477V8.78038H7.80493V7.80477H8.78053ZM7.80493 7.80477V8.78038H6.82932V7.80477H7.80493ZM7.80493 6.82916V7.80477H6.82932V6.82916H7.80493ZM6.82932 5.85355V6.82916H5.85371V5.85355H6.82932ZM5.85371 5.85355V6.82916H4.8781V5.85355H5.85371ZM5.85371 4.87794V5.85355H4.8781V4.87794H5.85371ZM5.85371 3.90233V4.87794H4.8781V3.90233H5.85371ZM5.85371 2.92672V3.90233H4.8781V2.92672H5.85371ZM5.85371 1.95111V2.92672H4.8781V1.95111H5.85371ZM6.82932 2.92672V3.90233H5.85371V2.92672H6.82932ZM6.82932 3.90233V4.87794H5.85371V3.90233H6.82932ZM7.80493 3.90233V4.87794H6.82932V3.90233H7.80493ZM7.80493 4.87794V5.85355H6.82932V4.87794H7.80493ZM8.78053 4.87794V5.85355H7.80493V4.87794H8.78053ZM8.78053 5.85355V6.82916H7.80493V5.85355H8.78053ZM9.75614 5.85355V6.82916H8.78053V5.85355H9.75614ZM9.75614 6.82916V7.80477H8.78053V6.82916H9.75614ZM10.7318 6.82916V7.80477H9.75614V6.82916H10.7318ZM10.7318 7.80477V8.78038H9.75614V7.80477H10.7318ZM10.7318 8.78038V9.75599H9.75614V8.78038H10.7318ZM9.75614 7.80477V8.78038H8.78053V7.80477H9.75614ZM8.78053 6.82916V7.80477H7.80493V6.82916H8.78053ZM7.80493 5.85355V6.82916H6.82932V5.85355H7.80493ZM12.683 6.82916V7.80477H11.7074V6.82916H12.683ZM12.683 7.80477V8.78038H11.7074V7.80477H12.683ZM12.683 8.78038V9.75599H11.7074V8.78038H12.683ZM12.683 9.75599V10.7316H11.7074V9.75599H12.683ZM12.683 10.7316V11.7072H11.7074V10.7316H12.683ZM12.683 11.7072V12.6828H11.7074V11.7072H12.683ZM12.683 12.6828V13.6584H11.7074V12.6828H12.683ZM30.2316 18.5365V17.5609H31.2072V18.5365H30.2316ZM29.256 18.5365V17.5609H30.2316V18.5365H29.256ZM28.2803 18.5365V17.5609H29.256V18.5365H28.2803ZM27.3047 18.5365V17.5609H28.2803V18.5365H27.3047ZM26.3291 18.5365V17.5609H27.3047V18.5365H26.3291ZM26.3291 19.5121V18.5365H27.3047V19.5121H26.3291ZM26.3291 20.4877V19.5121H27.3047V20.4877H26.3291ZM27.3047 20.4877V19.5121H28.2803V20.4877H27.3047ZM28.2803 20.4877V19.5121H29.256V20.4877H28.2803ZM29.256 20.4877V19.5121H30.2316V20.4877H29.256ZM29.256 19.5121V18.5365H30.2316V19.5121H29.256ZM30.2316 19.5121V18.5365H31.2072V19.5121H30.2316ZM28.2803 19.5121V18.5365H29.256V19.5121H28.2803ZM27.3047 19.5121V18.5365H28.2803V19.5121H27.3047ZM30.2316 20.4877V19.5121H31.2072V20.4877H30.2316ZM31.2072 20.4877V19.5121H32.1828V20.4877H31.2072ZM31.2072 21.4633V20.4877H32.1828V21.4633H31.2072ZM30.2316 21.4633V20.4877H31.2072V21.4633H30.2316ZM29.256 21.4633V20.4877H30.2316V21.4633H29.256ZM28.2803 21.4633V20.4877H29.256V21.4633H28.2803ZM27.3047 21.4633V20.4877H28.2803V21.4633H27.3047ZM27.3047 22.4389V21.4633H28.2803V22.4389H27.3047ZM28.2803 22.4389V21.4633H29.256V22.4389H28.2803ZM29.256 22.4389V21.4633H30.2316V22.4389H29.256ZM30.2316 22.4389V21.4633H31.2072V22.4389H30.2316ZM31.2072 22.4389V21.4633H32.1828V22.4389H31.2072ZM29.256 23.4145V22.4389H30.2316V23.4145H29.256ZM28.2803 23.4145V22.4389H29.256V23.4145H28.2803ZM30.2316 23.4145V22.4389H31.2072V23.4145H30.2316ZM30.2316 24.3901V23.4145H31.2072V24.3901H30.2316ZM31.2072 24.3901V23.4145H32.1828V24.3901H31.2072ZM31.2072 23.4145V22.4389H32.1828V23.4145H31.2072ZM32.1828 23.4145V22.4389H33.1584V23.4145H32.1828ZM32.1828 24.3901V23.4145H33.1584V24.3901H32.1828ZM32.1828 22.4389V21.4633H33.1584V22.4389H32.1828ZM33.1584 22.4389V21.4633H34.134V22.4389H33.1584ZM33.1584 21.4633V20.4877H34.134V21.4633H33.1584ZM32.1828 21.4633V20.4877H33.1584V21.4633H32.1828ZM34.134 21.4633V20.4877H35.1096V21.4633H34.134ZM34.134 22.4389V21.4633H35.1096V22.4389H34.134ZM34.134 23.4145V22.4389H35.1096V23.4145H34.134ZM34.134 24.3901V23.4145H35.1096V24.3901H34.134ZM33.1584 24.3901V23.4145H34.134V24.3901H33.1584ZM33.1584 23.4145V22.4389H34.134V23.4145H33.1584ZM35.1096 24.3901V23.4145H36.0852V24.3901H35.1096ZM37.0608 23.4145V22.4389H38.0364V23.4145H37.0608ZM37.0608 22.4389V21.4633H38.0364V22.4389H37.0608ZM37.0608 21.4633V20.4877H38.0364V21.4633H37.0608ZM36.0852 21.4633V20.4877H37.0608V21.4633H36.0852ZM35.1096 21.4633V20.4877H36.0852V21.4633H35.1096ZM35.1096 22.4389V21.4633H36.0852V22.4389H35.1096ZM35.1096 23.4145V22.4389H36.0852V23.4145H35.1096ZM36.0852 23.4145V22.4389H37.0608V23.4145H36.0852ZM36.0852 22.4389V21.4633H37.0608V22.4389H36.0852ZM38.0364 22.4389V21.4633H39.0121V22.4389H38.0364ZM38.0364 23.4145V22.4389H39.0121V23.4145H38.0364ZM39.0121 23.4145V22.4389H39.9877V23.4145H39.0121ZM39.0121 22.4389V21.4633H39.9877V22.4389H39.0121ZM39.9877 22.4389V21.4633H40.9633V22.4389H39.9877ZM39.9877 21.4633V20.4877H40.9633V21.4633H39.9877ZM39.9877 20.4877V19.5121H40.9633V20.4877H39.9877ZM39.0121 20.4877V19.5121H39.9877V20.4877H39.0121ZM39.0121 21.4633V20.4877H39.9877V21.4633H39.0121ZM38.0364 21.4633V20.4877H39.0121V21.4633H38.0364ZM38.0364 20.4877V19.5121H39.0121V20.4877H38.0364ZM37.0608 20.4877V19.5121H38.0364V20.4877H37.0608ZM40.9633 20.4877V19.5121H41.9389V20.4877H40.9633ZM40.9633 19.5121V18.5365H41.9389V19.5121H40.9633ZM40.9633 18.5365V17.5609H41.9389V18.5365H40.9633ZM40.9633 17.5609V16.5853H41.9389V17.5609H40.9633ZM40.9633 16.5853V15.6096H41.9389V16.5853H40.9633ZM40.9633 15.6096V14.634H41.9389V15.6096H40.9633ZM40.9633 14.634V13.6584H41.9389V14.634H40.9633ZM40.9633 13.6584V12.6828H41.9389V13.6584H40.9633ZM40.9633 12.6828V11.7072H41.9389V12.6828H40.9633ZM40.9633 11.7072V10.7316H41.9389V11.7072H40.9633ZM39.9877 11.7072V10.7316H40.9633V11.7072H39.9877ZM39.9877 10.7316V9.75599H40.9633V10.7316H39.9877ZM40.9633 10.7316V9.75599H41.9389V10.7316H40.9633ZM39.0121 10.7316V9.75599H39.9877V10.7316H39.0121ZM38.0364 10.7316V9.75599H39.0121V10.7316H38.0364ZM37.0608 10.7316V9.75599H38.0364V10.7316H37.0608ZM36.0852 10.7316V9.75599H37.0608V10.7316H36.0852ZM37.0608 11.7072V10.7316H38.0364V11.7072H37.0608ZM37.0608 12.6828V11.7072H38.0364V12.6828H37.0608ZM37.0608 13.6584V12.6828H38.0364V13.6584H37.0608ZM37.0608 14.634V13.6584H38.0364V14.634H37.0608ZM37.0608 15.6096V14.634H38.0364V15.6096H37.0608ZM37.0608 16.5853V15.6096H38.0364V16.5853H37.0608ZM37.0608 17.5609V16.5853H38.0364V17.5609H37.0608ZM37.0608 18.5365V17.5609H38.0364V18.5365H37.0608ZM37.0608 19.5121V18.5365H38.0364V19.5121H37.0608ZM38.0364 19.5121V18.5365H39.0121V19.5121H38.0364ZM39.0121 19.5121V18.5365H39.9877V19.5121H39.0121ZM39.9877 19.5121V18.5365H40.9633V19.5121H39.9877ZM39.9877 18.5365V17.5609H40.9633V18.5365H39.9877ZM39.9877 17.5609V16.5853H40.9633V17.5609H39.9877ZM39.9877 16.5853V15.6096H40.9633V16.5853H39.9877ZM39.9877 15.6096V14.634H40.9633V15.6096H39.9877ZM39.9877 14.634V13.6584H40.9633V14.634H39.9877ZM39.9877 13.6584V12.6828H40.9633V13.6584H39.9877ZM39.9877 12.6828V11.7072H40.9633V12.6828H39.9877ZM39.0121 11.7072V10.7316H39.9877V11.7072H39.0121ZM38.0364 11.7072V10.7316H39.0121V11.7072H38.0364ZM38.0364 12.6828V11.7072H39.0121V12.6828H38.0364ZM38.0364 13.6584V12.6828H39.0121V13.6584H38.0364ZM38.0364 14.634V13.6584H39.0121V14.634H38.0364ZM38.0364 15.6096V14.634H39.0121V15.6096H38.0364ZM39.0121 15.6096V14.634H39.9877V15.6096H39.0121ZM39.0121 16.5853V15.6096H39.9877V16.5853H39.0121ZM39.0121 17.5609V16.5853H39.9877V17.5609H39.0121ZM39.0121 18.5365V17.5609H39.9877V18.5365H39.0121ZM38.0364 18.5365V17.5609H39.0121V18.5365H38.0364ZM38.0364 17.5609V16.5853H39.0121V17.5609H38.0364ZM38.0364 16.5853V15.6096H39.0121V16.5853H38.0364ZM39.0121 13.6584V12.6828H39.9877V13.6584H39.0121ZM39.0121 12.6828V11.7072H39.9877V12.6828H39.0121ZM39.0121 14.634V13.6584H39.9877V14.634H39.0121ZM30.2316 11.7072V10.7316H31.2072V11.7072H30.2316ZM29.256 11.7072V10.7316H30.2316V11.7072H29.256ZM28.2803 11.7072V10.7316H29.256V11.7072H28.2803ZM27.3047 11.7072V10.7316H28.2803V11.7072H27.3047ZM26.3291 11.7072V10.7316H27.3047V11.7072H26.3291ZM26.3291 10.7316V9.75599H27.3047V10.7316H26.3291ZM27.3047 10.7316V9.75599H28.2803V10.7316H27.3047ZM28.2803 10.7316V9.75599H29.256V10.7316H28.2803ZM29.256 10.7316V9.75599H30.2316V10.7316H29.256ZM30.2316 10.7316V9.75599H31.2072V10.7316H30.2316ZM31.2072 10.7316V9.75599H32.1828V10.7316H31.2072ZM31.2072 9.75599V8.78038H32.1828V9.75599H31.2072ZM30.2316 9.75599V8.78038H31.2072V9.75599H30.2316ZM29.256 9.75599V8.78038H30.2316V9.75599H29.256ZM28.2803 9.75599V8.78038H29.256V9.75599H28.2803ZM28.2803 8.78038V7.80477H29.256V8.78038H28.2803ZM27.3047 8.78038V7.80477H28.2803V8.78038H27.3047ZM27.3047 9.75599V8.78038H28.2803V9.75599H27.3047ZM28.2803 7.80477V6.82916H29.256V7.80477H28.2803ZM29.256 7.80477V6.82916H30.2316V7.80477H29.256ZM29.256 8.78038V7.80477H30.2316V8.78038H29.256ZM30.2316 8.78038V7.80477H31.2072V8.78038H30.2316ZM30.2316 7.80477V6.82916H31.2072V7.80477H30.2316ZM30.2316 6.82916V5.85355H31.2072V6.82916H30.2316ZM31.2072 6.82916V5.85355H32.1828V6.82916H31.2072ZM32.1828 6.82916V5.85355H33.1584V6.82916H32.1828ZM33.1584 6.82916V5.85355H34.134V6.82916H33.1584ZM34.134 6.82916V5.85355H35.1096V6.82916H34.134ZM35.1096 6.82916V5.85355H36.0852V6.82916H35.1096ZM36.0852 6.82916V5.85355H37.0608V6.82916H36.0852ZM37.0608 6.82916V5.85355H38.0364V6.82916H37.0608ZM36.0852 7.80477V6.82916H37.0608V7.80477H36.0852ZM35.1096 7.80477V6.82916H36.0852V7.80477H35.1096ZM34.134 7.80477V6.82916H35.1096V7.80477H34.134ZM33.1584 7.80477V6.82916H34.134V7.80477H33.1584ZM32.1828 7.80477V6.82916H33.1584V7.80477H32.1828ZM31.2072 7.80477V6.82916H32.1828V7.80477H31.2072ZM31.2072 8.78038V7.80477H32.1828V8.78038H31.2072ZM32.1828 8.78038V7.80477H33.1584V8.78038H32.1828ZM33.1584 8.78038V7.80477H34.134V8.78038H33.1584ZM34.134 8.78038V7.80477H35.1096V8.78038H34.134ZM35.1096 8.78038V7.80477H36.0852V8.78038H35.1096ZM36.0852 8.78038V7.80477H37.0608V8.78038H36.0852ZM37.0608 7.80477V6.82916H38.0364V7.80477H37.0608ZM38.0364 7.80477V6.82916H39.0121V7.80477H38.0364ZM39.0121 7.80477V6.82916H39.9877V7.80477H39.0121ZM39.0121 8.78038V7.80477H39.9877V8.78038H39.0121ZM39.9877 8.78038V7.80477H40.9633V8.78038H39.9877ZM39.9877 9.75599V8.78038H40.9633V9.75599H39.9877ZM39.0121 9.75599V8.78038H39.9877V9.75599H39.0121ZM38.0364 9.75599V8.78038H39.0121V9.75599H38.0364ZM37.0608 9.75599V8.78038H38.0364V9.75599H37.0608ZM36.0852 9.75599V8.78038H37.0608V9.75599H36.0852ZM35.1096 9.75599V8.78038H36.0852V9.75599H35.1096ZM34.134 9.75599V8.78038H35.1096V9.75599H34.134ZM33.1584 9.75599V8.78038H34.134V9.75599H33.1584ZM32.1828 9.75599V8.78038H33.1584V9.75599H32.1828ZM37.0608 8.78038V7.80477H38.0364V8.78038H37.0608ZM38.0364 8.78038V7.80477H39.0121V8.78038H38.0364ZM27.3047 17.5609V16.5853H28.2803V17.5609H27.3047ZM28.2803 17.5609V16.5853H29.256V17.5609H28.2803ZM29.256 17.5609V16.5853H30.2316V17.5609H29.256ZM30.2316 17.5609V16.5853H31.2072V17.5609H30.2316ZM28.2803 16.5853V15.6096H29.256V16.5853H28.2803ZM29.256 16.5853V15.6096H30.2316V16.5853H29.256ZM31.2072 16.5853V15.6096H32.1828V16.5853H31.2072ZM32.1828 16.5853V15.6096H33.1584V16.5853H32.1828ZM33.1584 16.5853V15.6096H34.134V16.5853H33.1584ZM34.134 16.5853V15.6096H35.1096V16.5853H34.134ZM35.1096 16.5853V15.6096H36.0852V16.5853H35.1096ZM36.0852 16.5853V15.6096H37.0608V16.5853H36.0852ZM30.2316 16.5853V15.6096H31.2072V16.5853H30.2316ZM27.3047 16.5853V15.6096H28.2803V16.5853H27.3047ZM28.2803 15.6096V14.634H29.256V15.6096H28.2803ZM29.256 15.6096V14.634H30.2316V15.6096H29.256ZM30.2316 15.6096V14.634H31.2072V15.6096H30.2316ZM31.2072 15.6096V14.634H32.1828V15.6096H31.2072ZM32.1828 15.6096V14.634H33.1584V15.6096H32.1828ZM33.1584 15.6096V14.634H34.134V15.6096H33.1584ZM34.134 15.6096V14.634H35.1096V15.6096H34.134ZM35.1096 15.6096V14.634H36.0852V15.6096H35.1096ZM36.0852 15.6096V14.634H37.0608V15.6096H36.0852ZM36.0852 14.634V13.6584H37.0608V14.634H36.0852ZM35.1096 14.634V13.6584H36.0852V14.634H35.1096ZM34.134 14.634V13.6584H35.1096V14.634H34.134ZM32.1828 14.634V13.6584H33.1584V14.634H32.1828ZM31.2072 14.634V13.6584H32.1828V14.634H31.2072ZM30.2316 14.634V13.6584H31.2072V14.634H30.2316ZM33.1584 14.634V13.6584H34.134V14.634H33.1584ZM41.9389 20.4877V21.4633H40.9633V20.4877H41.9389ZM41.9389 21.4633V22.4389H40.9633V21.4633H41.9389ZM41.9389 22.4389V23.4145H40.9633V22.4389H41.9389ZM41.9389 23.4145V24.3901H40.9633V23.4145H41.9389ZM40.9633 23.4145V24.3901H39.9877V23.4145H40.9633ZM40.9633 22.4389V23.4145H39.9877V22.4389H40.9633ZM39.9877 23.4145V24.3901H39.0121V23.4145H39.9877ZM39.0121 23.4145V24.3901H38.0364V23.4145H39.0121ZM38.0364 23.4145V24.3901H37.0608V23.4145H38.0364ZM37.0608 19.5121V20.4877H36.0852V19.5121H37.0608ZM30.2316 23.4145V24.3901H29.256V23.4145H30.2316ZM32.1828 16.5853V17.5609H31.2072V16.5853H32.1828ZM46.835 23.4145V24.3901H45.8594V23.4145H46.835ZM46.835 22.4389V23.4145H45.8594V22.4389H46.835ZM46.835 21.4633V22.4389H45.8594V21.4633H46.835ZM46.835 20.4877V21.4633H45.8594V20.4877H46.835ZM46.835 19.5121V20.4877H45.8594V19.5121H46.835ZM46.835 18.5365V19.5121H45.8594V18.5365H46.835ZM46.835 17.5609V18.5365H45.8594V17.5609H46.835ZM46.835 16.5853V17.5609H45.8594V16.5853H46.835ZM46.835 15.6096V16.5853H45.8594V15.6096H46.835ZM46.835 14.634V15.6096H45.8594V14.634H46.835ZM46.835 13.6584V14.634H45.8594V13.6584H46.835ZM46.835 12.6828V13.6584H45.8594V12.6828H46.835ZM46.835 11.7072V12.6828H45.8594V11.7072H46.835ZM46.835 10.7316V11.7072H45.8594V10.7316H46.835ZM46.835 9.75599V10.7316H45.8594V9.75599H46.835ZM47.8106 9.75599V10.7316H46.835V9.75599H47.8106ZM47.8106 10.7316V11.7072H46.835V10.7316H47.8106ZM47.8106 11.7072V12.6828H46.835V11.7072H47.8106ZM47.8106 12.6828V13.6584H46.835V12.6828H47.8106ZM47.8106 13.6584V14.634H46.835V13.6584H47.8106ZM47.8106 14.634V15.6096H46.835V14.634H47.8106ZM47.8106 15.6096V16.5853H46.835V15.6096H47.8106ZM48.7863 16.5853V17.5609H47.8106V16.5853H48.7863ZM48.7863 17.5609V18.5365H47.8106V17.5609H48.7863ZM48.7863 18.5365V19.5121H47.8106V18.5365H48.7863ZM48.7863 19.5121V20.4877H47.8106V19.5121H48.7863ZM48.7863 20.4877V21.4633H47.8106V20.4877H48.7863ZM48.7863 21.4633V22.4389H47.8106V21.4633H48.7863ZM48.7863 22.4389V23.4145H47.8106V22.4389H48.7863ZM48.7863 23.4145V24.3901H47.8106V23.4145H48.7863ZM49.7619 23.4145V24.3901H48.7863V23.4145H49.7619ZM50.7375 23.4145V24.3901H49.7619V23.4145H50.7375ZM50.7375 22.4389V23.4145H49.7619V22.4389H50.7375ZM50.7375 21.4633V22.4389H49.7619V21.4633H50.7375ZM50.7375 20.4877V21.4633H49.7619V20.4877H50.7375ZM50.7375 19.5121V20.4877H49.7619V19.5121H50.7375ZM50.7375 18.5365V19.5121H49.7619V18.5365H50.7375ZM50.7375 17.5609V18.5365H49.7619V17.5609H50.7375ZM50.7375 16.5853V17.5609H49.7619V16.5853H50.7375ZM49.7619 16.5853V17.5609H48.7863V16.5853H49.7619ZM49.7619 15.6096V16.5853H48.7863V15.6096H49.7619ZM49.7619 17.5609V18.5365H48.7863V17.5609H49.7619ZM49.7619 18.5365V19.5121H48.7863V18.5365H49.7619ZM49.7619 19.5121V20.4877H48.7863V19.5121H49.7619ZM49.7619 20.4877V21.4633H48.7863V20.4877H49.7619ZM49.7619 21.4633V22.4389H48.7863V21.4633H49.7619ZM49.7619 22.4389V23.4145H48.7863V22.4389H49.7619ZM47.8106 23.4145V24.3901H46.835V23.4145H47.8106ZM47.8106 22.4389V23.4145H46.835V22.4389H47.8106ZM47.8106 21.4633V22.4389H46.835V21.4633H47.8106ZM47.8106 20.4877V21.4633H46.835V20.4877H47.8106ZM47.8106 19.5121V20.4877H46.835V19.5121H47.8106ZM47.8106 18.5365V19.5121H46.835V18.5365H47.8106ZM47.8106 17.5609V18.5365H46.835V17.5609H47.8106ZM47.8106 16.5853V17.5609H46.835V16.5853H47.8106ZM46.835 5.85355V6.82916H45.8594V5.85355H46.835ZM46.835 6.82916V7.80477H45.8594V6.82916H46.835ZM46.835 7.80477V8.78038H45.8594V7.80477H46.835ZM46.835 8.78038V9.75599H45.8594V8.78038H46.835ZM49.7619 6.82916V7.80477H48.7863V6.82916H49.7619ZM49.7619 7.80477V8.78038H48.7863V7.80477H49.7619ZM49.7619 8.78038V9.75599H48.7863V8.78038H49.7619ZM49.7619 9.75599V10.7316H48.7863V9.75599H49.7619ZM49.7619 10.7316V11.7072H48.7863V10.7316H49.7619ZM49.7619 11.7072V12.6828H48.7863V11.7072H49.7619ZM49.7619 12.6828V13.6584H48.7863V12.6828H49.7619ZM50.7375 13.6584V14.634H49.7619V13.6584H50.7375ZM50.7375 14.634V15.6096H49.7619V14.634H50.7375ZM50.7375 15.6096V16.5853H49.7619V15.6096H50.7375ZM50.7375 12.6828V13.6584H49.7619V12.6828H50.7375ZM50.7375 11.7072V12.6828H49.7619V11.7072H50.7375ZM50.7375 10.7316V11.7072H49.7619V10.7316H50.7375ZM50.7375 9.75599V10.7316H49.7619V9.75599H50.7375ZM50.7375 8.78038V9.75599H49.7619V8.78038H50.7375ZM50.7375 7.80477V8.78038H49.7619V7.80477H50.7375ZM50.7375 6.82916V7.80477H49.7619V6.82916H50.7375ZM50.7375 5.85355V6.82916H49.7619V5.85355H50.7375ZM49.7619 5.85355V6.82916H48.7863V5.85355H49.7619ZM48.7863 5.85355V6.82916H47.8106V5.85355H48.7863ZM48.7863 6.82916V7.80477H47.8106V6.82916H48.7863ZM47.8106 7.80477V8.78038H46.835V7.80477H47.8106ZM47.8106 8.78038V9.75599H46.835V8.78038H47.8106ZM47.8106 6.82916V7.80477H46.835V6.82916H47.8106ZM47.8106 5.85355V6.82916H46.835V5.85355H47.8106ZM48.7863 7.80477V8.78038H47.8106V7.80477H48.7863ZM48.7863 8.78038V9.75599H47.8106V8.78038H48.7863ZM48.7863 9.75599V10.7316H47.8106V9.75599H48.7863ZM48.7863 10.7316V11.7072H47.8106V10.7316H48.7863ZM48.7863 11.7072V12.6828H47.8106V11.7072H48.7863ZM48.7863 12.6828V13.6584H47.8106V12.6828H48.7863ZM48.7863 13.6584V14.634H47.8106V13.6584H48.7863ZM48.7863 14.634V15.6096H47.8106V14.634H48.7863ZM48.7863 15.6096V16.5853H47.8106V15.6096H48.7863ZM49.7619 14.634V15.6096H48.7863V14.634H49.7619ZM49.7619 13.6584V14.634H48.7863V13.6584H49.7619ZM57.5667 9.75599V10.7316H56.5911V9.75599H57.5667ZM57.5667 5.85355V6.82916H56.5911V5.85355H57.5667ZM57.5667 6.82916V7.80477H56.5911V6.82916H57.5667ZM58.5423 6.82916V7.80477H57.5667V6.82916H58.5423ZM59.518 7.80477V8.78038H58.5423V7.80477H59.518ZM58.5423 8.78038V9.75599H57.5667V8.78038H58.5423ZM58.5423 7.80477V8.78038H57.5667V7.80477H58.5423ZM57.5667 7.80477V8.78038H56.5911V7.80477H57.5667ZM56.5911 7.80477V8.78038H55.6155V7.80477H56.5911ZM56.5911 8.78038V9.75599H55.6155V8.78038H56.5911ZM57.5667 8.78038V9.75599H56.5911V8.78038H57.5667ZM56.5911 9.75599V10.7316H55.6155V9.75599H56.5911ZM55.6155 8.78038V9.75599H54.6399V8.78038H55.6155ZM55.6155 7.80477V8.78038H54.6399V7.80477H55.6155ZM55.6155 6.82916V7.80477H54.6399V6.82916H55.6155ZM55.6155 5.85355V6.82916H54.6399V5.85355H55.6155ZM56.5911 5.85355V6.82916H55.6155V5.85355H56.5911ZM56.5911 6.82916V7.80477H55.6155V6.82916H56.5911ZM54.6399 5.85355V6.82916H53.6643V5.85355H54.6399ZM54.6399 6.82916V7.80477H53.6643V6.82916H54.6399ZM54.6399 7.80477V8.78038H53.6643V7.80477H54.6399ZM54.6399 8.78038V9.75599H53.6643V8.78038H54.6399ZM53.6643 5.85355V6.82916H52.6887V5.85355H53.6643ZM53.6643 6.82916V7.80477H52.6887V6.82916H53.6643ZM52.6887 6.82916V7.80477H51.7131V6.82916H52.6887ZM52.6887 7.80477V8.78038H51.7131V7.80477H52.6887ZM51.7131 7.80477V8.78038H50.7375V7.80477H51.7131ZM51.7131 8.78038V9.75599H50.7375V8.78038H51.7131ZM52.6887 8.78038V9.75599H51.7131V8.78038H52.6887ZM53.6643 8.78038V9.75599H52.6887V8.78038H53.6643ZM53.6643 7.80477V8.78038H52.6887V7.80477H53.6643ZM51.7131 9.75599V10.7316H50.7375V9.75599H51.7131ZM52.6887 5.85355V6.82916H51.7131V5.85355H52.6887ZM51.7131 6.82916V7.80477H50.7375V6.82916H51.7131ZM55.6155 9.75599V10.7316H54.6399V9.75599H55.6155ZM56.5911 10.7316V11.7072H55.6155V10.7316H56.5911Z" fill="white"/>
<path d="M62.46 23.4145V24.3901H61.4844V23.4145H62.46ZM62.46 22.4389V23.4145H61.4844V22.4389H62.46ZM62.46 21.4633V22.4389H61.4844V21.4633H62.46ZM62.46 20.4877V21.4633H61.4844V20.4877H62.46ZM62.46 19.5121V20.4877H61.4844V19.5121H62.46ZM62.46 18.5365V19.5121H61.4844V18.5365H62.46ZM62.46 17.5609V18.5365H61.4844V17.5609H62.46ZM62.46 16.5853V17.5609H61.4844V16.5853H62.46ZM62.46 15.6096V16.5853H61.4844V15.6096H62.46ZM62.46 14.634V15.6096H61.4844V14.634H62.46ZM62.46 13.6584V14.634H61.4844V13.6584H62.46ZM62.46 12.6828V13.6584H61.4844V12.6828H62.46ZM62.46 11.7072V12.6828H61.4844V11.7072H62.46ZM62.46 10.7316V11.7072H61.4844V10.7316H62.46ZM62.46 9.75599V10.7316H61.4844V9.75599H62.46ZM63.4356 9.75599V10.7316H62.46V9.75599H63.4356ZM63.4356 10.7316V11.7072H62.46V10.7316H63.4356ZM63.4356 11.7072V12.6828H62.46V11.7072H63.4356ZM63.4356 12.6828V13.6584H62.46V12.6828H63.4356ZM63.4356 13.6584V14.634H62.46V13.6584H63.4356ZM63.4356 14.634V15.6096H62.46V14.634H63.4356ZM63.4356 15.6096V16.5853H62.46V15.6096H63.4356ZM64.4113 16.5853V17.5609H63.4356V16.5853H64.4113ZM64.4113 17.5609V18.5365H63.4356V17.5609H64.4113ZM64.4113 18.5365V19.5121H63.4356V18.5365H64.4113ZM64.4113 19.5121V20.4877H63.4356V19.5121H64.4113ZM64.4113 20.4877V21.4633H63.4356V20.4877H64.4113ZM64.4113 21.4633V22.4389H63.4356V21.4633H64.4113ZM64.4113 22.4389V23.4145H63.4356V22.4389H64.4113ZM64.4113 23.4145V24.3901H63.4356V23.4145H64.4113ZM65.3869 23.4145V24.3901H64.4113V23.4145H65.3869ZM66.3625 23.4145V24.3901H65.3869V23.4145H66.3625ZM66.3625 22.4389V23.4145H65.3869V22.4389H66.3625ZM66.3625 21.4633V22.4389H65.3869V21.4633H66.3625ZM66.3625 20.4877V21.4633H65.3869V20.4877H66.3625ZM66.3625 19.5121V20.4877H65.3869V19.5121H66.3625ZM66.3625 18.5365V19.5121H65.3869V18.5365H66.3625ZM66.3625 17.5609V18.5365H65.3869V17.5609H66.3625ZM66.3625 16.5853V17.5609H65.3869V16.5853H66.3625ZM65.3869 16.5853V17.5609H64.4113V16.5853H65.3869ZM65.3869 15.6096V16.5853H64.4113V15.6096H65.3869ZM65.3869 17.5609V18.5365H64.4113V17.5609H65.3869ZM65.3869 18.5365V19.5121H64.4113V18.5365H65.3869ZM65.3869 19.5121V20.4877H64.4113V19.5121H65.3869ZM65.3869 20.4877V21.4633H64.4113V20.4877H65.3869ZM65.3869 21.4633V22.4389H64.4113V21.4633H65.3869ZM65.3869 22.4389V23.4145H64.4113V22.4389H65.3869ZM63.4356 23.4145V24.3901H62.46V23.4145H63.4356ZM63.4356 22.4389V23.4145H62.46V22.4389H63.4356ZM63.4356 21.4633V22.4389H62.46V21.4633H63.4356ZM63.4356 20.4877V21.4633H62.46V20.4877H63.4356ZM63.4356 19.5121V20.4877H62.46V19.5121H63.4356ZM63.4356 18.5365V19.5121H62.46V18.5365H63.4356ZM63.4356 17.5609V18.5365H62.46V17.5609H63.4356ZM63.4356 16.5853V17.5609H62.46V16.5853H63.4356ZM62.46 -0.000107765V0.975503H61.4844V-0.000107765H62.46ZM62.46 0.975503V1.95111H61.4844V0.975503H62.46ZM62.46 1.95111V2.92672H61.4844V1.95111H62.46ZM62.46 2.92672V3.90233H61.4844V2.92672H62.46ZM62.46 3.90233V4.87794H61.4844V3.90233H62.46ZM62.46 4.87794V5.85355H61.4844V4.87794H62.46ZM62.46 5.85355V6.82916H61.4844V5.85355H62.46ZM62.46 6.82916V7.80477H61.4844V6.82916H62.46ZM62.46 7.80477V8.78038H61.4844V7.80477H62.46ZM62.46 8.78038V9.75599H61.4844V8.78038H62.46ZM65.3869 -0.000107765V0.975503H64.4113V-0.000107765H65.3869ZM65.3869 0.975503V1.95111H64.4113V0.975503H65.3869ZM65.3869 1.95111V2.92672H64.4113V1.95111H65.3869ZM65.3869 2.92672V3.90233H64.4113V2.92672H65.3869ZM65.3869 3.90233V4.87794H64.4113V3.90233H65.3869ZM65.3869 4.87794V5.85355H64.4113V4.87794H65.3869ZM65.3869 6.82916V7.80477H64.4113V6.82916H65.3869ZM65.3869 7.80477V8.78038H64.4113V7.80477H65.3869ZM65.3869 8.78038V9.75599H64.4113V8.78038H65.3869ZM65.3869 9.75599V10.7316H64.4113V9.75599H65.3869ZM65.3869 10.7316V11.7072H64.4113V10.7316H65.3869ZM65.3869 11.7072V12.6828H64.4113V11.7072H65.3869ZM65.3869 12.6828V13.6584H64.4113V12.6828H65.3869ZM66.3625 13.6584V14.634H65.3869V13.6584H66.3625ZM66.3625 14.634V15.6096H65.3869V14.634H66.3625ZM66.3625 15.6096V16.5853H65.3869V15.6096H66.3625ZM66.3625 12.6828V13.6584H65.3869V12.6828H66.3625ZM66.3625 11.7072V12.6828H65.3869V11.7072H66.3625ZM66.3625 10.7316V11.7072H65.3869V10.7316H66.3625ZM66.3625 9.75599V10.7316H65.3869V9.75599H66.3625ZM66.3625 8.78038V9.75599H65.3869V8.78038H66.3625ZM66.3625 7.80477V8.78038H65.3869V7.80477H66.3625ZM66.3625 6.82916V7.80477H65.3869V6.82916H66.3625ZM66.3625 5.85355V6.82916H65.3869V5.85355H66.3625ZM66.3625 4.87794V5.85355H65.3869V4.87794H66.3625ZM66.3625 3.90233V4.87794H65.3869V3.90233H66.3625ZM65.3869 5.85355V6.82916H64.4113V5.85355H65.3869ZM66.3625 2.92672V3.90233H65.3869V2.92672H66.3625ZM66.3625 1.95111V2.92672H65.3869V1.95111H66.3625ZM66.3625 0.975503V1.95111H65.3869V0.975503H66.3625ZM66.3625 -0.000107765V0.975503H65.3869V-0.000107765H66.3625ZM64.4113 -0.000107765V0.975503H63.4356V-0.000107765H64.4113ZM63.4356 -0.000107765V0.975503H62.46V-0.000107765H63.4356ZM63.4356 0.975503V1.95111H62.46V0.975503H63.4356ZM64.4113 0.975503V1.95111H63.4356V0.975503H64.4113ZM64.4113 1.95111V2.92672H63.4356V1.95111H64.4113ZM64.4113 2.92672V3.90233H63.4356V2.92672H64.4113ZM64.4113 3.90233V4.87794H63.4356V3.90233H64.4113ZM64.4113 4.87794V5.85355H63.4356V4.87794H64.4113ZM64.4113 5.85355V6.82916H63.4356V5.85355H64.4113ZM64.4113 6.82916V7.80477H63.4356V6.82916H64.4113ZM63.4356 7.80477V8.78038H62.46V7.80477H63.4356ZM63.4356 8.78038V9.75599H62.46V8.78038H63.4356ZM63.4356 6.82916V7.80477H62.46V6.82916H63.4356ZM63.4356 5.85355V6.82916H62.46V5.85355H63.4356ZM63.4356 4.87794V5.85355H62.46V4.87794H63.4356ZM63.4356 3.90233V4.87794H62.46V3.90233H63.4356ZM63.4356 2.92672V3.90233H62.46V2.92672H63.4356ZM63.4356 1.95111V2.92672H62.46V1.95111H63.4356ZM64.4113 7.80477V8.78038H63.4356V7.80477H64.4113ZM64.4113 8.78038V9.75599H63.4356V8.78038H64.4113ZM64.4113 9.75599V10.7316H63.4356V9.75599H64.4113ZM64.4113 10.7316V11.7072H63.4356V10.7316H64.4113ZM64.4113 11.7072V12.6828H63.4356V11.7072H64.4113ZM64.4113 12.6828V13.6584H63.4356V12.6828H64.4113ZM64.4113 13.6584V14.634H63.4356V13.6584H64.4113ZM64.4113 14.634V15.6096H63.4356V14.634H64.4113ZM64.4113 15.6096V16.5853H63.4356V15.6096H64.4113ZM65.3869 14.634V15.6096H64.4113V14.634H65.3869ZM65.3869 13.6584V14.634H64.4113V13.6584H65.3869ZM71.2491 23.4145V24.3901H70.2735V23.4145H71.2491ZM71.2491 22.4389V23.4145H70.2735V22.4389H71.2491ZM71.2491 21.4633V22.4389H70.2735V21.4633H71.2491ZM71.2491 20.4877V21.4633H70.2735V20.4877H71.2491ZM71.2491 19.5121V20.4877H70.2735V19.5121H71.2491ZM71.2491 18.5365V19.5121H70.2735V18.5365H71.2491ZM71.2491 17.5609V18.5365H70.2735V17.5609H71.2491ZM71.2491 16.5853V17.5609H70.2735V16.5853H71.2491ZM71.2491 15.6096V16.5853H70.2735V15.6096H71.2491ZM71.2491 14.634V15.6096H70.2735V14.634H71.2491ZM71.2491 13.6584V14.634H70.2735V13.6584H71.2491ZM71.2491 12.6828V13.6584H70.2735V12.6828H71.2491ZM71.2491 11.7072V12.6828H70.2735V11.7072H71.2491ZM71.2491 10.7316V11.7072H70.2735V10.7316H71.2491ZM71.2491 9.75599V10.7316H70.2735V9.75599H71.2491ZM72.2247 9.75599V10.7316H71.2491V9.75599H72.2247ZM72.2247 10.7316V11.7072H71.2491V10.7316H72.2247ZM72.2247 11.7072V12.6828H71.2491V11.7072H72.2247ZM72.2247 12.6828V13.6584H71.2491V12.6828H72.2247ZM72.2247 13.6584V14.634H71.2491V13.6584H72.2247ZM72.2247 14.634V15.6096H71.2491V14.634H72.2247ZM72.2247 15.6096V16.5853H71.2491V15.6096H72.2247ZM73.2003 16.5853V17.5609H72.2247V16.5853H73.2003ZM73.2003 17.5609V18.5365H72.2247V17.5609H73.2003ZM73.2003 18.5365V19.5121H72.2247V18.5365H73.2003ZM73.2003 19.5121V20.4877H72.2247V19.5121H73.2003ZM73.2003 20.4877V21.4633H72.2247V20.4877H73.2003ZM73.2003 21.4633V22.4389H72.2247V21.4633H73.2003ZM73.2003 22.4389V23.4145H72.2247V22.4389H73.2003ZM73.2003 23.4145V24.3901H72.2247V23.4145H73.2003ZM74.1759 23.4145V24.3901H73.2003V23.4145H74.1759ZM75.1515 23.4145V24.3901H74.1759V23.4145H75.1515ZM75.1515 22.4389V23.4145H74.1759V22.4389H75.1515ZM75.1515 21.4633V22.4389H74.1759V21.4633H75.1515ZM75.1515 20.4877V21.4633H74.1759V20.4877H75.1515ZM75.1515 19.5121V20.4877H74.1759V19.5121H75.1515ZM75.1515 18.5365V19.5121H74.1759V18.5365H75.1515ZM75.1515 17.5609V18.5365H74.1759V17.5609H75.1515ZM75.1515 16.5853V17.5609H74.1759V16.5853H75.1515ZM74.1759 16.5853V17.5609H73.2003V16.5853H74.1759ZM74.1759 15.6096V16.5853H73.2003V15.6096H74.1759ZM74.1759 17.5609V18.5365H73.2003V17.5609H74.1759ZM74.1759 18.5365V19.5121H73.2003V18.5365H74.1759ZM74.1759 19.5121V20.4877H73.2003V19.5121H74.1759ZM74.1759 20.4877V21.4633H73.2003V20.4877H74.1759ZM74.1759 21.4633V22.4389H73.2003V21.4633H74.1759ZM74.1759 22.4389V23.4145H73.2003V22.4389H74.1759ZM72.2247 23.4145V24.3901H71.2491V23.4145H72.2247ZM72.2247 22.4389V23.4145H71.2491V22.4389H72.2247ZM72.2247 21.4633V22.4389H71.2491V21.4633H72.2247ZM72.2247 20.4877V21.4633H71.2491V20.4877H72.2247ZM72.2247 19.5121V20.4877H71.2491V19.5121H72.2247ZM72.2247 18.5365V19.5121H71.2491V18.5365H72.2247ZM72.2247 17.5609V18.5365H71.2491V17.5609H72.2247ZM72.2247 16.5853V17.5609H71.2491V16.5853H72.2247ZM71.2491 6.82916V7.80477H70.2735V6.82916H71.2491ZM71.2491 7.80477V8.78038H70.2735V7.80477H71.2491ZM71.2491 8.78038V9.75599H70.2735V8.78038H71.2491ZM74.1759 4.87794V5.85355H73.2003V4.87794H74.1759ZM74.1759 6.82916V7.80477H73.2003V6.82916H74.1759ZM74.1759 7.80477V8.78038H73.2003V7.80477H74.1759ZM74.1759 8.78038V9.75599H73.2003V8.78038H74.1759ZM74.1759 9.75599V10.7316H73.2003V9.75599H74.1759ZM74.1759 10.7316V11.7072H73.2003V10.7316H74.1759ZM74.1759 11.7072V12.6828H73.2003V11.7072H74.1759ZM74.1759 12.6828V13.6584H73.2003V12.6828H74.1759ZM75.1515 13.6584V14.634H74.1759V13.6584H75.1515ZM75.1515 14.634V15.6096H74.1759V14.634H75.1515ZM75.1515 15.6096V16.5853H74.1759V15.6096H75.1515ZM75.1515 12.6828V13.6584H74.1759V12.6828H75.1515ZM75.1515 11.7072V12.6828H74.1759V11.7072H75.1515ZM75.1515 10.7316V11.7072H74.1759V10.7316H75.1515ZM75.1515 9.75599V10.7316H74.1759V9.75599H75.1515ZM75.1515 8.78038V9.75599H74.1759V8.78038H75.1515ZM75.1515 7.80477V8.78038H74.1759V7.80477H75.1515ZM75.1515 6.82916V7.80477H74.1759V6.82916H75.1515ZM75.1515 5.85355V6.82916H74.1759V5.85355H75.1515ZM75.1515 4.87794V5.85355H74.1759V4.87794H75.1515ZM75.1515 3.90233V4.87794H74.1759V3.90233H75.1515ZM74.1759 5.85355V6.82916H73.2003V5.85355H74.1759ZM75.1515 2.92672V3.90233H74.1759V2.92672H75.1515ZM75.1515 1.95111V2.92672H74.1759V1.95111H75.1515ZM73.2003 4.87794V5.85355H72.2247V4.87794H73.2003ZM73.2003 5.85355V6.82916H72.2247V5.85355H73.2003ZM73.2003 6.82916V7.80477H72.2247V6.82916H73.2003ZM72.2247 7.80477V8.78038H71.2491V7.80477H72.2247ZM72.2247 8.78038V9.75599H71.2491V8.78038H72.2247ZM72.2247 6.82916V7.80477H71.2491V6.82916H72.2247ZM72.2247 5.85355V6.82916H71.2491V5.85355H72.2247ZM73.2003 7.80477V8.78038H72.2247V7.80477H73.2003ZM73.2003 8.78038V9.75599H72.2247V8.78038H73.2003ZM73.2003 9.75599V10.7316H72.2247V9.75599H73.2003ZM73.2003 10.7316V11.7072H72.2247V10.7316H73.2003ZM73.2003 11.7072V12.6828H72.2247V11.7072H73.2003ZM73.2003 12.6828V13.6584H72.2247V12.6828H73.2003ZM73.2003 13.6584V14.634H72.2247V13.6584H73.2003ZM73.2003 14.634V15.6096H72.2247V14.634H73.2003ZM73.2003 15.6096V16.5853H72.2247V15.6096H73.2003ZM74.1759 14.634V15.6096H73.2003V14.634H74.1759ZM74.1759 13.6584V14.634H73.2003V13.6584H74.1759ZM81.9808 23.4145V24.3901H81.0052V23.4145H81.9808ZM81.9808 22.4389V23.4145H81.0052V22.4389H81.9808ZM81.9808 21.4633V22.4389H81.0052V21.4633H81.9808ZM81.9808 20.4877V21.4633H81.0052V20.4877H81.9808ZM81.9808 19.5121V20.4877H81.0052V19.5121H81.9808ZM81.9808 18.5365V19.5121H81.0052V18.5365H81.9808ZM81.9808 17.5609V18.5365H81.0052V17.5609H81.9808ZM81.9808 16.5853V17.5609H81.0052V16.5853H81.9808ZM81.9808 15.6096V16.5853H81.0052V15.6096H81.9808ZM81.9808 14.634V15.6096H81.0052V14.634H81.9808ZM81.9808 13.6584V14.634H81.0052V13.6584H81.9808ZM81.9808 12.6828V13.6584H81.0052V12.6828H81.9808ZM81.9808 11.7072V12.6828H81.0052V11.7072H81.9808ZM81.9808 10.7316V11.7072H81.0052V10.7316H81.9808ZM81.9808 9.75599V10.7316H81.0052V9.75599H81.9808ZM82.9564 9.75599V10.7316H81.9808V9.75599H82.9564ZM82.9564 10.7316V11.7072H81.9808V10.7316H82.9564ZM82.9564 11.7072V12.6828H81.9808V11.7072H82.9564ZM82.9564 12.6828V13.6584H81.9808V12.6828H82.9564ZM82.9564 13.6584V14.634H81.9808V13.6584H82.9564ZM82.9564 14.634V15.6096H81.9808V14.634H82.9564ZM82.9564 15.6096V16.5853H81.9808V15.6096H82.9564ZM83.932 16.5853V17.5609H82.9564V16.5853H83.932ZM83.932 17.5609V18.5365H82.9564V17.5609H83.932ZM83.932 18.5365V19.5121H82.9564V18.5365H83.932ZM83.932 19.5121V20.4877H82.9564V19.5121H83.932ZM83.932 20.4877V21.4633H82.9564V20.4877H83.932ZM83.932 21.4633V22.4389H82.9564V21.4633H83.932ZM83.932 22.4389V23.4145H82.9564V22.4389H83.932ZM83.932 23.4145V24.3901H82.9564V23.4145H83.932ZM84.9076 23.4145V24.3901H83.932V23.4145H84.9076ZM85.8832 23.4145V24.3901H84.9076V23.4145H85.8832ZM85.8832 22.4389V23.4145H84.9076V22.4389H85.8832ZM85.8832 21.4633V22.4389H84.9076V21.4633H85.8832ZM85.8832 20.4877V21.4633H84.9076V20.4877H85.8832ZM85.8832 19.5121V20.4877H84.9076V19.5121H85.8832ZM85.8832 18.5365V19.5121H84.9076V18.5365H85.8832ZM85.8832 17.5609V18.5365H84.9076V17.5609H85.8832ZM85.8832 16.5853V17.5609H84.9076V16.5853H85.8832ZM84.9076 16.5853V17.5609H83.932V16.5853H84.9076ZM84.9076 15.6096V16.5853H83.932V15.6096H84.9076ZM84.9076 17.5609V18.5365H83.932V17.5609H84.9076ZM84.9076 18.5365V19.5121H83.932V18.5365H84.9076ZM84.9076 19.5121V20.4877H83.932V19.5121H84.9076ZM84.9076 20.4877V21.4633H83.932V20.4877H84.9076ZM84.9076 21.4633V22.4389H83.932V21.4633H84.9076ZM84.9076 22.4389V23.4145H83.932V22.4389H84.9076ZM82.9564 23.4145V24.3901H81.9808V23.4145H82.9564ZM82.9564 22.4389V23.4145H81.9808V22.4389H82.9564ZM82.9564 21.4633V22.4389H81.9808V21.4633H82.9564ZM82.9564 20.4877V21.4633H81.9808V20.4877H82.9564ZM82.9564 19.5121V20.4877H81.9808V19.5121H82.9564ZM82.9564 18.5365V19.5121H81.9808V18.5365H82.9564ZM82.9564 17.5609V18.5365H81.9808V17.5609H82.9564ZM82.9564 16.5853V17.5609H81.9808V16.5853H82.9564ZM81.9808 1.95111V2.92672H81.0052V1.95111H81.9808ZM81.9808 2.92672V3.90233H81.0052V2.92672H81.9808ZM81.9808 3.90233V4.87794H81.0052V3.90233H81.9808ZM81.9808 4.87794V5.85355H81.0052V4.87794H81.9808ZM81.9808 5.85355V6.82916H81.0052V5.85355H81.9808ZM81.9808 6.82916V7.80477H81.0052V6.82916H81.9808ZM81.9808 7.80477V8.78038H81.0052V7.80477H81.9808ZM81.9808 8.78038V9.75599H81.0052V8.78038H81.9808ZM84.9076 4.87794V5.85355H83.932V4.87794H84.9076ZM84.9076 6.82916V7.80477H83.932V6.82916H84.9076ZM84.9076 7.80477V8.78038H83.932V7.80477H84.9076ZM84.9076 8.78038V9.75599H83.932V8.78038H84.9076ZM84.9076 9.75599V10.7316H83.932V9.75599H84.9076ZM84.9076 10.7316V11.7072H83.932V10.7316H84.9076ZM84.9076 11.7072V12.6828H83.932V11.7072H84.9076ZM84.9076 12.6828V13.6584H83.932V12.6828H84.9076ZM85.8832 13.6584V14.634H84.9076V13.6584H85.8832ZM85.8832 14.634V15.6096H84.9076V14.634H85.8832ZM85.8832 15.6096V16.5853H84.9076V15.6096H85.8832ZM85.8832 12.6828V13.6584H84.9076V12.6828H85.8832ZM85.8832 11.7072V12.6828H84.9076V11.7072H85.8832ZM85.8832 10.7316V11.7072H84.9076V10.7316H85.8832ZM85.8832 9.75599V10.7316H84.9076V9.75599H85.8832ZM85.8832 8.78038V9.75599H84.9076V8.78038H85.8832ZM85.8832 7.80477V8.78038H84.9076V7.80477H85.8832ZM85.8832 6.82916V7.80477H84.9076V6.82916H85.8832ZM85.8832 5.85355V6.82916H84.9076V5.85355H85.8832ZM84.9076 5.85355V6.82916H83.932V5.85355H84.9076ZM83.932 3.90233V4.87794H82.9564V3.90233H83.932ZM83.932 4.87794V5.85355H82.9564V4.87794H83.932ZM83.932 5.85355V6.82916H82.9564V5.85355H83.932ZM83.932 6.82916V7.80477H82.9564V6.82916H83.932ZM82.9564 7.80477V8.78038H81.9808V7.80477H82.9564ZM82.9564 8.78038V9.75599H81.9808V8.78038H82.9564ZM82.9564 6.82916V7.80477H81.9808V6.82916H82.9564ZM82.9564 5.85355V6.82916H81.9808V5.85355H82.9564ZM82.9564 4.87794V5.85355H81.9808V4.87794H82.9564ZM82.9564 3.90233V4.87794H81.9808V3.90233H82.9564ZM82.9564 2.92672V3.90233H81.9808V2.92672H82.9564ZM83.932 7.80477V8.78038H82.9564V7.80477H83.932ZM83.932 8.78038V9.75599H82.9564V8.78038H83.932ZM83.932 9.75599V10.7316H82.9564V9.75599H83.932ZM83.932 10.7316V11.7072H82.9564V10.7316H83.932ZM83.932 11.7072V12.6828H82.9564V11.7072H83.932ZM83.932 12.6828V13.6584H82.9564V12.6828H83.932ZM83.932 13.6584V14.634H82.9564V13.6584H83.932ZM83.932 14.634V15.6096H82.9564V14.634H83.932ZM83.932 15.6096V16.5853H82.9564V15.6096H83.932ZM84.9076 14.634V15.6096H83.932V14.634H84.9076ZM84.9076 13.6584V14.634H83.932V13.6584H84.9076ZM77.1028 -0.000107765V0.975503H76.1271V-0.000107765H77.1028ZM78.0784 -0.000107765V0.975503H77.1028V-0.000107765H78.0784ZM79.054 -0.000107765V0.975503H78.0784V-0.000107765H79.054ZM80.0296 -0.000107765V0.975503H79.054V-0.000107765H80.0296ZM81.0052 0.975503V1.95111H80.0296V0.975503H81.0052ZM80.0296 0.975503V1.95111H79.054V0.975503H80.0296ZM79.054 0.975503V1.95111H78.0784V0.975503H79.054ZM78.0784 0.975503V1.95111H77.1028V0.975503H78.0784ZM77.1028 0.975503V1.95111H76.1271V0.975503H77.1028ZM76.1271 0.975503V1.95111H75.1515V0.975503H76.1271ZM76.1271 1.95111V2.92672H75.1515V1.95111H76.1271ZM76.1271 2.92672V3.90233H75.1515V2.92672H76.1271ZM77.1028 1.95111V2.92672H76.1271V1.95111H77.1028ZM78.0784 1.95111V2.92672H77.1028V1.95111H78.0784ZM79.054 1.95111V2.92672H78.0784V1.95111H79.054ZM80.0296 1.95111V2.92672H79.054V1.95111H80.0296ZM81.0052 1.95111V2.92672H80.0296V1.95111H81.0052ZM81.0052 2.92672V3.90233H80.0296V2.92672H81.0052ZM80.0296 2.92672V3.90233H79.054V2.92672H80.0296ZM79.054 2.92672V3.90233H78.0784V2.92672H79.054ZM78.0784 2.92672V3.90233H77.1028V2.92672H78.0784ZM77.1028 2.92672V3.90233H76.1271V2.92672H77.1028ZM76.1271 3.90233V4.87794H75.1515V3.90233H76.1271ZM77.1028 3.90233V4.87794H76.1271V3.90233H77.1028ZM81.0052 3.90233V4.87794H80.0296V3.90233H81.0052ZM80.0296 3.90233V4.87794H79.054V3.90233H80.0296ZM81.0052 4.87794V5.85355H80.0296V4.87794H81.0052ZM76.1271 4.87794V5.85355H75.1515V4.87794H76.1271ZM74.1759 2.92672V3.90233H73.2003V2.92672H74.1759ZM74.1759 3.90233V4.87794H73.2003V3.90233H74.1759ZM73.2003 3.90233V4.87794H72.2247V3.90233H73.2003ZM72.2247 4.87794V5.85355H71.2491V4.87794H72.2247ZM71.2491 5.85355V6.82916H70.2735V5.85355H71.2491ZM76.1271 5.85355V6.82916H75.1515V5.85355H76.1271ZM77.1028 4.87794V5.85355H76.1271V4.87794H77.1028ZM78.0784 3.90233V4.87794H77.1028V3.90233H78.0784ZM79.054 3.90233V4.87794H78.0784V3.90233H79.054ZM80.0296 4.87794V5.85355H79.054V4.87794H80.0296ZM81.0052 5.85355V6.82916H80.0296V5.85355H81.0052ZM76.1271 17.5609V18.5365H75.1515V17.5609H76.1271ZM77.1028 17.5609V18.5365H76.1271V17.5609H77.1028ZM78.0784 17.5609V18.5365H77.1028V17.5609H78.0784ZM79.054 17.5609V18.5365H78.0784V17.5609H79.054ZM80.0296 17.5609V18.5365H79.054V17.5609H80.0296ZM81.0052 17.5609V18.5365H80.0296V17.5609H81.0052ZM81.0052 16.5853V17.5609H80.0296V16.5853H81.0052ZM80.0296 16.5853V17.5609H79.054V16.5853H80.0296ZM79.054 16.5853V17.5609H78.0784V16.5853H79.054ZM78.0784 16.5853V17.5609H77.1028V16.5853H78.0784ZM77.1028 16.5853V17.5609H76.1271V16.5853H77.1028ZM76.1271 16.5853V17.5609H75.1515V16.5853H76.1271ZM76.1271 15.6096V16.5853H75.1515V15.6096H76.1271ZM77.1028 15.6096V16.5853H76.1271V15.6096H77.1028ZM78.0784 15.6096V16.5853H77.1028V15.6096H78.0784ZM79.054 15.6096V16.5853H78.0784V15.6096H79.054ZM80.0296 15.6096V16.5853H79.054V15.6096H80.0296ZM81.0052 15.6096V16.5853H80.0296V15.6096H81.0052ZM81.0052 14.634V15.6096H80.0296V14.634H81.0052ZM80.0296 14.634V15.6096H79.054V14.634H80.0296ZM79.054 14.634V15.6096H78.0784V14.634H79.054ZM78.0784 14.634V15.6096H77.1028V14.634H78.0784ZM77.1028 14.634V15.6096H76.1271V14.634H77.1028ZM76.1271 14.634V15.6096H75.1515V14.634H76.1271ZM76.1271 13.6584V14.634H75.1515V13.6584H76.1271ZM77.1028 13.6584V14.634H76.1271V13.6584H77.1028ZM78.0784 13.6584V14.634H77.1028V13.6584H78.0784ZM79.054 13.6584V14.634H78.0784V13.6584H79.054ZM80.0296 13.6584V14.634H79.054V13.6584H80.0296ZM81.0052 13.6584V14.634H80.0296V13.6584H81.0052ZM78.0784 4.87794V5.85355H77.1028V4.87794H78.0784ZM79.054 4.87794V5.85355H78.0784V4.87794H79.054ZM77.1028 5.85355V6.82916H76.1271V5.85355H77.1028ZM76.1271 6.82916V7.80477H75.1515V6.82916H76.1271ZM80.0296 5.85355V6.82916H79.054V5.85355H80.0296ZM81.0052 6.82916V7.80477H80.0296V6.82916H81.0052Z" fill="#FF00EE" fill-opacity="0.76"/>
</svg>
